<svg width="20" height="20" viewBox="0 0 20 20" fill="none" xmlns="http://www.w3.org/2000/svg">
<path d="M9.99998 13.3333H10.0075M9.99998 10.8333V6.66666M12.6275 3.56999C11.6491 3.20666 11.215 1.75333 10.1 1.66999C10.0334 1.66599 9.96659 1.66599 9.89998 1.66999C8.78582 1.75333 8.35165 3.20666 7.37332 3.56999C6.33748 3.95416 4.92082 3.16666 4.04415 4.04333C3.19998 4.8875 3.94665 6.35833 3.56998 7.37249C3.18582 8.40999 1.57582 8.83916 1.66998 10.1C1.75415 11.2142 3.20748 11.6492 3.56998 12.6275C3.94665 13.6417 3.19998 15.1125 4.04415 15.9567C4.92082 16.8333 6.33748 16.0458 7.37332 16.43C8.35082 16.7933 8.78582 18.2467 9.90082 18.33C9.96748 18.335 10.0339 18.335 10.1 18.33C11.215 18.2467 11.65 16.7933 12.6275 16.43C13.6416 16.0542 15.1125 16.8008 15.9566 15.9567C16.8625 15.0508 15.99 13.5817 16.4683 12.535C16.91 11.5717 18.4216 11.12 18.33 9.90083C18.2466 8.78583 16.7941 8.35083 16.43 7.37249C16.0466 6.33666 16.8333 4.92083 15.9566 4.04333C15.08 3.16583 13.6633 3.95416 12.6275 3.56999Z" stroke="#2F3036" stroke-width="1.5" stroke-linecap="round" stroke-linejoin="round"/>
</svg>
