<svg width="20" height="20" viewBox="0 0 20 20" fill="none" xmlns="http://www.w3.org/2000/svg">
<path d="M6 20C5.45 20 4.97933 19.8043 4.588 19.413C4.19667 19.0217 4.00067 18.5507 4 18C3.99933 17.4493 4.19533 16.9787 4.588 16.588C4.98067 16.1973 5.45133 16.0013 6 16C6.54867 15.9987 7.01967 16.1947 7.413 16.588C7.80633 16.9813 8.002 17.452 8 18C7.998 18.548 7.80233 19.019 7.413 19.413C7.02367 19.807 6.55267 20.0027 6 20ZM16 20C15.45 20 14.9793 19.8043 14.588 19.413C14.1967 19.0217 14.0007 18.5507 14 18C13.9993 17.4493 14.1953 16.9787 14.588 16.588C14.9807 16.1973 15.4513 16.0013 16 16C16.5487 15.9987 17.0197 16.1947 17.413 16.588C17.8063 16.9813 18.002 17.452 18 18C17.998 18.548 17.8023 19.019 17.413 19.413C17.0237 19.807 16.5527 20.0027 16 20ZM4.2 2H18.95C19.3333 2 19.625 2.171 19.825 2.513C20.025 2.855 20.0333 3.20067 19.85 3.55L16.3 9.95C16.1167 10.2833 15.871 10.5417 15.563 10.725C15.255 10.9083 14.9173 11 14.55 11H7.1L6 13H18V15H6C5.25 15 4.68333 14.671 4.3 14.013C3.91667 13.355 3.9 12.7007 4.25 12.05L5.6 9.6L2 2H0V0H3.25L4.2 2Z" fill="#6059F7"/>
</svg>
