<svg width="12" height="12" viewBox="0 0 12 12" fill="none" xmlns="http://www.w3.org/2000/svg">
<g clip-path="url(#clip0_1244_4290)">
<path d="M5.71166 10.6701C3.90831 10.6701 3.00686 10.6701 2.44654 9.99863C1.88623 9.32808 1.88623 8.24733 1.88623 6.08675C1.88623 3.92617 1.88623 2.84588 2.44654 2.17442C3.00686 1.50296 3.90831 1.50342 5.71166 1.50342C7.51501 1.50342 8.41646 1.50342 8.97677 2.17442C9.42772 2.71525 9.51593 3.52054 9.53303 4.94092M4.13648 4.25342H7.28683M4.13648 6.54508H5.48663" stroke="black" stroke-width="0.6875" stroke-linecap="round" stroke-linejoin="round"/>
<path d="M9.36149 8.88492C9.62095 8.69285 9.81405 8.42207 9.9131 8.11137C10.0122 7.80067 10.0121 7.46601 9.91291 7.15536C9.81373 6.8447 9.62052 6.574 9.36098 6.38204C9.10145 6.19009 8.7889 6.08673 8.46814 6.08679H8.35518C8.03446 6.08683 7.72198 6.19025 7.46251 6.38224C7.20305 6.57424 7.00992 6.84494 6.91079 7.15558C6.81167 7.46621 6.81164 7.80083 6.9107 8.11148C7.00977 8.42213 7.20285 8.69287 7.46228 8.88492M7.46228 8.88492C7.72157 9.07745 8.03428 9.18098 8.35518 9.18054H8.46769C8.78859 9.18098 9.1013 9.07745 9.36059 8.88492L9.62297 9.72596C9.72288 10.0468 9.77329 10.2072 9.75934 10.3071C9.73098 10.5152 9.56446 10.6692 9.36779 10.6701C9.27328 10.6701 9.13197 10.595 8.84888 10.4437C8.72737 10.3786 8.66706 10.3465 8.60496 10.3273C8.47871 10.2888 8.34416 10.2888 8.21791 10.3273C8.15581 10.3465 8.09505 10.3786 7.97399 10.4437C7.6909 10.595 7.54959 10.6706 7.45508 10.6701C7.25841 10.6692 7.09189 10.5152 7.06353 10.3071C7.05003 10.2072 7.09954 10.0468 7.1999 9.72596L7.46228 8.88492Z" stroke="black" stroke-width="0.6875" stroke-linecap="round" stroke-linejoin="round"/>
</g>
<defs>
<clipPath id="clip0_1244_4290">
<rect width="10.8012" height="11" fill="white" transform="translate(0.536133 0.586792)"/>
</clipPath>
</defs>
</svg>
