<svg width="24" height="24" viewBox="0 0 24 24" fill="none" xmlns="http://www.w3.org/2000/svg">
<path d="M14 14.5C14 13.7044 14.3161 12.9413 14.8787 12.3787C15.4413 11.8161 16.2044 11.5 17 11.5C17.7956 11.5 18.5587 11.8161 19.1213 12.3787C19.6839 12.9413 20 13.7044 20 14.5C20 15.2956 19.6839 16.0587 19.1213 16.6213C18.5587 17.1839 17.7956 17.5 17 17.5C16.2044 17.5 15.4413 17.1839 14.8787 16.6213C14.3161 16.0587 14 15.2956 14 14.5ZM4 9.5C4 9.89397 4.0776 10.2841 4.22836 10.6481C4.37913 11.012 4.6001 11.3427 4.87868 11.6213C5.15726 11.8999 5.48797 12.1209 5.85195 12.2716C6.21593 12.4224 6.60603 12.5 7 12.5C7.39397 12.5 7.78407 12.4224 8.14805 12.2716C8.51203 12.1209 8.84274 11.8999 9.12132 11.6213C9.3999 11.3427 9.62087 11.012 9.77164 10.6481C9.9224 10.2841 10 9.89397 10 9.5C10 8.70435 9.68393 7.94129 9.12132 7.37868C8.55871 6.81607 7.79565 6.5 7 6.5C6.20435 6.5 5.44129 6.81607 4.87868 7.37868C4.31607 7.94129 4 8.70435 4 9.5Z" stroke="#6059F7" stroke-width="1.5"/>
<path d="M7 13V18M7 21V22M17 11V6M17 3V2M17 22V18M7 2V6" stroke="#6059F7" stroke-width="1.5" stroke-linecap="round"/>
</svg>
