<svg width="20" height="16" viewBox="0 0 20 16" fill="none" xmlns="http://www.w3.org/2000/svg">
<path d="M7.50001 2.18833C6.18584 1.83583 3.87668 0.883331 2.63501 1.58416C1.34334 2.3125 1.34334 7.02083 2.63501 7.74916C3.87668 8.44916 6.18584 7.4975 7.50001 7.14416M12.5 2.18833C13.8133 1.83583 16.1233 0.883331 17.365 1.58416C18.6567 2.3125 18.6567 7.02083 17.365 7.74916C16.1233 8.44916 13.8133 7.4975 12.5 7.14416" stroke="#2F3036" stroke-width="1.5" stroke-linecap="round" stroke-linejoin="round"/>
<path d="M10.0001 7.99999C11.841 7.99999 13.3334 6.50761 13.3334 4.66666C13.3334 2.82571 11.841 1.33333 10.0001 1.33333C8.15913 1.33333 6.66675 2.82571 6.66675 4.66666C6.66675 6.50761 8.15913 7.99999 10.0001 7.99999Z" stroke="#2F3036" stroke-width="1.5" stroke-linecap="round" stroke-linejoin="round"/>
<path d="M8.14329 7.16667L6.95412 12.4792C6.67829 13.7125 6.53996 14.3292 6.82079 14.5308C7.77912 15.2175 8.96579 13.0808 9.99996 13.0808C10.9416 13.0808 12.3475 15.1267 13.18 14.5308C13.46 14.33 13.3216 13.7125 13.0458 12.4792L11.8566 7.16667" stroke="#2F3036" stroke-width="1.5" stroke-linecap="round" stroke-linejoin="round"/>
</svg>
