<svg width="24" height="24" viewBox="0 0 24 24" fill="none" xmlns="http://www.w3.org/2000/svg">
<path d="M3.03 13.078C2.86898 12.7413 2.7854 12.3728 2.7854 11.9995C2.7854 11.6263 2.86898 11.2578 3.03 10.921C3.17 10.627 3.41 10.345 3.89 9.78102C4.082 9.55602 4.178 9.44402 4.258 9.32402C4.44205 9.04951 4.56985 8.74124 4.634 8.41702C4.662 8.27502 4.674 8.12802 4.697 7.83402C4.756 7.09602 4.785 6.72702 4.894 6.41802C5.01848 6.0662 5.22015 5.74672 5.48421 5.48301C5.74827 5.21929 6.06802 5.01804 6.42 4.89402C6.728 4.78502 7.097 4.75502 7.836 4.69702C8.13 4.67302 8.276 4.66102 8.418 4.63302C8.74256 4.569 9.05119 4.4412 9.326 4.25702C9.446 4.17702 9.558 4.08202 9.782 3.89002C10.346 3.41002 10.628 3.17002 10.922 3.02902C11.2587 2.868 11.6272 2.78442 12.0005 2.78442C12.3737 2.78442 12.7423 2.868 13.079 3.02902C13.374 3.16902 13.656 3.40902 14.219 3.89002C14.444 4.08202 14.556 4.17702 14.676 4.25702C14.9508 4.4412 15.2594 4.569 15.584 4.63302C15.725 4.66102 15.872 4.67302 16.166 4.69702C16.905 4.75502 17.274 4.78502 17.582 4.89402C17.9338 5.01817 18.2533 5.21948 18.5172 5.48318C18.7811 5.74689 18.9826 6.06631 19.107 6.41802M4.894 17.581C5.01838 17.9327 5.21989 18.2522 5.48377 18.5159C5.74765 18.7796 6.0672 18.9809 6.419 19.105C6.727 19.215 7.096 19.244 7.835 19.302C8.129 19.326 8.275 19.338 8.417 19.366C8.74156 19.43 9.05019 19.5578 9.325 19.742C9.445 19.822 9.557 19.917 9.781 20.109C10.345 20.589 10.627 20.829 10.921 20.97C11.2577 21.131 11.6262 21.2146 11.9995 21.2146C12.3728 21.2146 12.7413 21.131 13.078 20.97C13.373 20.83 13.655 20.59 14.218 20.109C14.363 19.9779 14.5156 19.8553 14.675 19.742C14.9498 19.5578 15.2584 19.43 15.583 19.366C15.724 19.338 15.871 19.326 16.165 19.302C16.904 19.244 17.273 19.214 17.581 19.105C17.9328 18.9809 18.2523 18.7796 18.5162 18.5159C18.7801 18.2522 18.9816 17.9327 19.106 17.581C19.215 17.273 19.244 16.903 19.303 16.165C19.326 15.871 19.338 15.724 19.366 15.582C19.43 15.258 19.558 14.949 19.742 14.675C19.822 14.555 19.918 14.443 20.109 14.218C20.589 13.654 20.83 13.372 20.971 13.078C21.132 12.7413 21.2156 12.3728 21.2156 11.9995C21.2156 11.6263 21.132 11.2578 20.971 10.921M9 15L15 9.00002" stroke="#6059F7" stroke-width="1.5" stroke-linecap="round"/>
<path d="M15.5 14.5C15.5 14.7652 15.3946 15.0196 15.2071 15.2071C15.0196 15.3946 14.7652 15.5 14.5 15.5C14.2348 15.5 13.9804 15.3946 13.7929 15.2071C13.6054 15.0196 13.5 14.7652 13.5 14.5C13.5 14.2348 13.6054 13.9804 13.7929 13.7929C13.9804 13.6054 14.2348 13.5 14.5 13.5C14.7652 13.5 15.0196 13.6054 15.2071 13.7929C15.3946 13.9804 15.5 14.2348 15.5 14.5ZM10.5 9.5C10.5 9.76522 10.3946 10.0196 10.2071 10.2071C10.0196 10.3946 9.76522 10.5 9.5 10.5C9.23478 10.5 8.98043 10.3946 8.79289 10.2071C8.60536 10.0196 8.5 9.76522 8.5 9.5C8.5 9.23478 8.60536 8.98043 8.79289 8.79289C8.98043 8.60536 9.23478 8.5 9.5 8.5C9.76522 8.5 10.0196 8.60536 10.2071 8.79289C10.3946 8.98043 10.5 9.23478 10.5 9.5Z" fill="#6059F7"/>
</svg>
