<svg width="11" height="11" viewBox="0 0 11 11" fill="none" xmlns="http://www.w3.org/2000/svg">
<path d="M8.10102 0.503418V1.42008M2.70042 0.503418V1.42008M1.35027 3.25342H9.45117M1.12524 5.19813C1.12524 3.20117 1.12524 2.20246 1.68871 1.58188C2.25217 0.961751 3.15947 0.961751 4.97317 0.961751H5.82827C7.64197 0.961751 8.54927 0.961751 9.11273 1.58233C9.6762 2.20246 9.6762 3.20117 9.6762 5.19858V5.43371C9.6762 7.43067 9.6762 8.42938 9.11273 9.04996C8.54927 9.67008 7.64197 9.67008 5.82827 9.67008H4.97317C3.15947 9.67008 2.25217 9.67008 1.68871 9.0495C1.12524 8.42938 1.12524 7.43067 1.12524 5.43325V5.19813Z" stroke="#2F3036" stroke-width="0.6875" stroke-linecap="round" stroke-linejoin="round"/>
</svg>
