<svg width="24" height="24" viewBox="0 0 24 24" fill="none" xmlns="http://www.w3.org/2000/svg">
<path d="M3 13.111C3 20.222 8.289 22 10.933 22C12.287 22 14.248 21.643 16 20.61M18.72 18C19.502 16.754 20 15.152 20 13.111C20 8.58404 17.165 5.35104 14.602 3.49804C13.444 2.66004 12 3.58004 12 5.01004V5.33304C12 6.77504 11.394 9.40704 9.71 10.502C8.85 11.061 7.92 10.224 7.816 9.20404L7.73 8.36604C7.63 7.39204 6.638 6.80104 5.86 7.39504C5.10217 7.97046 4.46076 8.68484 3.97 9.50004" stroke="#6059F7" stroke-width="1.5" stroke-linecap="round"/>
<path d="M8 18.4451C8 21.2891 10.489 22.0001 11.733 22.0001C12.823 22.0001 15 21.2891 15 18.4451C15 17.3431 14.41 16.6001 13.84 16.1711C13.442 15.8721 12.883 16.1411 12.746 16.6201C12.568 17.2441 11.923 17.6361 11.594 17.0761C11.294 16.5641 11.294 15.7961 11.294 15.3331C11.294 14.6971 10.654 14.2851 10.139 14.6591C9.106 15.4091 8 16.6801 8 18.4451Z" stroke="#6059F7" stroke-width="1.5"/>
</svg>
