<svg width="4" height="13" viewBox="0 0 4 13" fill="none" xmlns="http://www.w3.org/2000/svg">
<path d="M1.15643 0.560057C1.33072 0.483305 1.5191 0.443747 1.70954 0.443909C1.89985 0.443955 2.08807 0.483667 2.26218 0.560511C2.43629 0.637354 2.59247 0.749643 2.72076 0.890214C2.84906 1.03079 2.94664 1.19655 3.0073 1.37694C3.06795 1.55733 3.09034 1.74838 3.07304 1.93791L2.52704 7.94691C2.50581 8.14893 2.41053 8.33594 2.25957 8.47187C2.10862 8.6078 1.91267 8.68302 1.70954 8.68302C1.5064 8.68302 1.31046 8.6078 1.1595 8.47187C1.00854 8.33594 0.913264 8.14893 0.892038 7.94691L0.344538 1.93791C0.327225 1.74826 0.349657 1.55708 0.410401 1.37659C0.471144 1.19609 0.568864 1.03026 0.697319 0.889661C0.825773 0.749066 0.98214 0.636808 1.15643 0.560057Z" fill="white"/>
<path d="M3.01808 11.2477C3.01808 11.9703 2.43225 12.5562 1.70959 12.5562C0.986938 12.5562 0.40111 11.9703 0.40111 11.2477C0.40111 10.525 0.986938 9.93918 1.70959 9.93918C2.43225 9.93918 3.01808 10.525 3.01808 11.2477Z" fill="white"/>
</svg>
