<svg width="21" height="20" viewBox="0 0 21 20" fill="none" xmlns="http://www.w3.org/2000/svg">
<path d="M1.75 10.17C1.75 8.26252 1.75 7.30919 2.205 6.51919C2.65825 5.72835 3.48862 5.23835 5.1485 4.25669L6.8985 3.22252C8.65287 2.18502 9.5305 1.66669 10.5 1.66669C11.4695 1.66669 12.3462 2.18502 14.1015 3.22252L15.8515 4.25669C17.5114 5.23835 18.3418 5.72835 18.7959 6.51919C19.25 7.31002 19.25 8.26252 19.25 10.1692V11.4375C19.25 14.6875 19.25 16.3134 18.2245 17.3234C17.199 18.3334 15.5496 18.3334 12.25 18.3334H8.75C5.45038 18.3334 3.80012 18.3334 2.7755 17.3234C1.75087 16.3134 1.75 14.6884 1.75 11.4375V10.17Z" stroke="#8F9098" stroke-width="1.5"/>
<path d="M10.5 12.5V15" stroke="#8F9098" stroke-width="1.5" stroke-linecap="round"/>
<path d="M10 20 ..." fill="currentColor" />

</svg>
