<svg width="19" height="20" viewBox="0 0 19 20" fill="none" xmlns="http://www.w3.org/2000/svg">
<path d="M0.75 10.17C0.75 8.26252 0.75 7.30919 1.205 6.51919C1.65825 5.72835 2.48862 5.23835 4.1485 4.25669L5.8985 3.22252C7.65287 2.18502 8.5305 1.66669 9.5 1.66669C10.4695 1.66669 11.3462 2.18502 13.1015 3.22252L14.8515 4.25669C16.5114 5.23835 17.3418 5.72835 17.7959 6.51919C18.25 7.31002 18.25 8.26252 18.25 10.1692V11.4375C18.25 14.6875 18.25 16.3134 17.2245 17.3234C16.199 18.3334 14.5496 18.3334 11.25 18.3334H7.75C4.45038 18.3334 2.80012 18.3334 1.7755 17.3234C0.750875 16.3134 0.75 14.6884 0.75 11.4375V10.17Z" stroke="#6059F7" stroke-width="1.5"/>
<path d="M9.5 12.5V15" stroke="#6059F7" stroke-width="1.5" stroke-linecap="round"/>
</svg>
