<svg width="7" height="11" viewBox="0 0 7 11" fill="none" xmlns="http://www.w3.org/2000/svg">
<path fill-rule="evenodd" clip-rule="evenodd" d="M1.34202 4.31322C1.34202 3.76093 1.78973 3.31322 2.34202 3.31322H3.7088C4.26109 3.31322 4.7088 3.76093 4.7088 4.31322V8.96997H5.91467C6.46696 8.96997 6.91467 9.41769 6.91467 9.96997C6.91467 10.5223 6.46696 10.97 5.91467 10.97H1.50293C0.950645 10.97 0.50293 10.5223 0.50293 9.96997C0.50293 9.41769 0.950645 8.96997 1.50293 8.96997H2.7088V5.31322H2.34202C1.78973 5.31322 1.34202 4.8655 1.34202 4.31322Z" fill="white"/>
<path d="M4.94142 1.33845C4.94142 2.06111 4.35559 2.64694 3.63293 2.64694C2.91028 2.64694 2.32445 2.06111 2.32445 1.33845C2.32445 0.615797 2.91028 0.0299683 3.63293 0.0299683C4.35559 0.0299683 4.94142 0.615797 4.94142 1.33845Z" fill="white"/>
</svg>
