<svg width="18" height="19" viewBox="0 0 18 19" fill="none" xmlns="http://www.w3.org/2000/svg">
<g filter="url(#filter0_d_1244_4240)">
<path d="M13.4373 5.08675C13.4373 2.55538 11.4224 0.503418 8.93678 0.503418C6.45115 0.503418 4.43628 2.55538 4.43628 5.08675C4.43628 7.61813 6.45115 9.67009 8.93678 9.67009C11.4224 9.67009 13.4373 7.61813 13.4373 5.08675Z" stroke="#2F3036" stroke-width="0.6875" stroke-linecap="round" stroke-linejoin="round"/>
<path d="M12.5372 2.19879C12.1164 2.2295 11.5777 2.39588 11.2041 2.88813C10.5291 3.77729 9.85443 3.852 9.40438 3.55546C8.72931 3.11088 9.29682 2.38992 8.50473 1.9985C7.98853 1.74321 7.91652 1.04883 8.2041 0.503418M4.43628 4.62842C4.77967 4.93184 5.25987 5.20959 5.82648 5.20959C6.99661 5.20959 7.23064 5.43738 7.23064 6.34809C7.23064 7.25879 7.23064 7.25879 7.46467 7.94171C7.61678 8.38629 7.66989 8.82996 7.36656 9.21175M13.4373 5.75225C13.0381 5.5185 12.5372 5.42179 12.03 5.79259C11.0601 6.503 10.3909 5.9145 10.0898 6.50254C9.64651 7.36788 11.2302 7.63967 9.83688 9.67009" stroke="#2F3036" stroke-width="0.6875" stroke-linecap="round" stroke-linejoin="round"/>
</g>
<defs>
<filter id="filter0_d_1244_4240" x="0.0925293" y="0.159546" width="17.6885" height="17.8544" filterUnits="userSpaceOnUse" color-interpolation-filters="sRGB">
<feFlood flood-opacity="0" result="BackgroundImageFix"/>
<feColorMatrix in="SourceAlpha" type="matrix" values="0 0 0 0 0 0 0 0 0 0 0 0 0 0 0 0 0 0 127 0" result="hardAlpha"/>
<feOffset dy="4"/>
<feGaussianBlur stdDeviation="2"/>
<feComposite in2="hardAlpha" operator="out"/>
<feColorMatrix type="matrix" values="0 0 0 0 0 0 0 0 0 0 0 0 0 0 0 0 0 0 0.25 0"/>
<feBlend mode="normal" in2="BackgroundImageFix" result="effect1_dropShadow_1244_4240"/>
<feBlend mode="normal" in="SourceGraphic" in2="effect1_dropShadow_1244_4240" result="shape"/>
</filter>
</defs>
</svg>
