<svg width="11" height="12" viewBox="0 0 11 12" fill="none" xmlns="http://www.w3.org/2000/svg">
<path d="M9.30852 8.34588V5.17008C9.30852 3.44171 9.30852 2.57729 8.77635 2.04058C8.24418 1.50388 7.38826 1.50342 5.67597 1.50342H5.2219C3.50961 1.50342 2.65324 1.50342 2.12152 2.04058C1.58981 2.57775 1.58936 3.44171 1.58936 5.17008V9.52425" stroke="#2F3036" stroke-width="0.6875" stroke-linecap="round" stroke-linejoin="round"/>
<path d="M9.30852 8.37842H2.72453C2.42346 8.37842 2.13473 8.49914 1.92184 8.71402C1.70895 8.92891 1.58936 9.22036 1.58936 9.52425C1.58936 9.82815 1.70895 10.1196 1.92184 10.3345C2.13473 10.5494 2.42346 10.6701 2.72453 10.6701H9.30852" stroke="#2F3036" stroke-width="0.6875" stroke-linecap="round" stroke-linejoin="round"/>
<path d="M9.30849 8.37841C9.00742 8.37841 8.71869 8.49913 8.5058 8.71401C8.29292 8.9289 8.17332 9.22035 8.17332 9.52424C8.17332 9.82813 8.29292 10.1196 8.5058 10.3345C8.71869 10.5494 9.00742 10.6701 9.30849 10.6701M6.79295 5.09582C6.73619 5.34241 6.46511 5.51611 5.92341 5.86399C5.39942 6.20041 5.13787 6.36861 4.92673 6.30124C4.83743 6.27197 4.75769 6.21874 4.69606 6.14724C4.54077 5.97032 4.54077 5.62703 4.54077 4.94091C4.54077 4.25478 4.54077 3.91149 4.69561 3.73503C4.76009 3.6617 4.83955 3.60853 4.92673 3.58057C5.13787 3.5132 5.39942 3.68141 5.92341 4.01782C6.46511 4.3657 6.73619 4.53941 6.79341 4.78599C6.81702 4.88728 6.81702 4.99453 6.79341 5.09582" stroke="#2F3036" stroke-width="0.6875" stroke-linecap="round" stroke-linejoin="round"/>
</svg>
