<svg width="11" height="15" viewBox="0 0 11 15" fill="none" xmlns="http://www.w3.org/2000/svg">
<path d="M5.5 10.3125V9.06247M0.6675 11.7781C0.808125 12.8218 1.6725 13.64 2.725 13.6881C3.61 13.7287 4.50937 13.75 5.5 13.75C6.49063 13.75 7.39 13.7287 8.275 13.6875C9.3275 13.64 10.1919 12.8218 10.3325 11.7781C10.4244 11.0968 10.5 10.3987 10.5 9.68747C10.5 8.97622 10.4244 8.2781 10.3325 7.59685C10.1919 6.5531 9.3275 5.73497 8.275 5.68685C7.35061 5.6446 6.42536 5.62397 5.5 5.62497C4.50937 5.62497 3.61 5.64622 2.725 5.68747C1.6725 5.73497 0.808125 6.5531 0.6675 7.59685C0.575 8.2781 0.5 8.97622 0.5 9.68747C0.5 10.3987 0.575625 11.0968 0.6675 11.7781Z" stroke="#6059F7" stroke-width="0.9375" stroke-linecap="round" stroke-linejoin="round"/>
<path d="M2.6875 5.625V4.0625C2.6875 3.31658 2.98382 2.60121 3.51126 2.07376C4.03871 1.54632 4.75408 1.25 5.5 1.25C6.24592 1.25 6.96129 1.54632 7.48874 2.07376C8.01618 2.60121 8.3125 3.31658 8.3125 4.0625V5.625" stroke="#6059F7" stroke-width="0.9375" stroke-linecap="round" stroke-linejoin="round"/>
</svg>
