<svg width="18" height="4" viewBox="0 0 18 4" fill="none" xmlns="http://www.w3.org/2000/svg">
<path d="M16.5 2C16.5 1.66848 16.3683 1.35054 16.1339 1.11612C15.8995 0.881696 15.5815 0.75 15.25 0.75C14.9185 0.75 14.6005 0.881696 14.3661 1.11612C14.1317 1.35054 14 1.66848 14 2C14 2.33152 14.1317 2.64946 14.3661 2.88388C14.6005 3.1183 14.9185 3.25 15.25 3.25C15.5815 3.25 15.8995 3.1183 16.1339 2.88388C16.3683 2.64946 16.5 2.33152 16.5 2ZM10.25 2C10.25 1.66848 10.1183 1.35054 9.88388 1.11612C9.64946 0.881696 9.33152 0.75 9 0.75C8.66848 0.75 8.35054 0.881696 8.11612 1.11612C7.8817 1.35054 7.75 1.66848 7.75 2C7.75 2.33152 7.8817 2.64946 8.11612 2.88388C8.35054 3.1183 8.66848 3.25 9 3.25C9.33152 3.25 9.64946 3.1183 9.88388 2.88388C10.1183 2.64946 10.25 2.33152 10.25 2ZM4 2C4 1.66848 3.8683 1.35054 3.63388 1.11612C3.39946 0.881696 3.08152 0.75 2.75 0.75C2.41848 0.75 2.10054 0.881696 1.86612 1.11612C1.6317 1.35054 1.5 1.66848 1.5 2C1.5 2.33152 1.6317 2.64946 1.86612 2.88388C2.10054 3.1183 2.41848 3.25 2.75 3.25C3.08152 3.25 3.39946 3.1183 3.63388 2.88388C3.8683 2.64946 4 2.33152 4 2Z" stroke="#2F3036" stroke-width="1.5" stroke-linecap="round" stroke-linejoin="round"/>
</svg>
