<svg width="24" height="24" viewBox="0 0 24 24" fill="none" xmlns="http://www.w3.org/2000/svg">
<path d="M14 10.5L16.555 8.797C16.6919 8.70565 16.8042 8.58192 16.8818 8.43678C16.9594 8.29165 17 8.12959 17 7.965V2.5" stroke="#6059F7" stroke-width="1.5" stroke-linecap="round"/>
<path d="M17 12C16.9997 13.0538 16.6665 14.0806 16.0479 14.9337C15.4293 15.7869 14.5569 16.4228 13.5554 16.7506C12.5539 17.0784 11.4744 17.0814 10.471 16.7591C9.46769 16.4369 8.59182 15.8059 7.96849 14.9562C7.34515 14.1065 7.00622 13.0816 7.00008 12.0278C6.99395 10.9739 7.32093 9.94515 7.93434 9.08826C8.54775 8.23137 9.41621 7.59019 10.4157 7.25628C11.4153 6.92238 12.4947 6.91282 13.5 7.22896" stroke="#6059F7" stroke-width="1.5" stroke-linecap="round"/>
<path d="M12 14C11.4696 14 10.9609 13.7893 10.5858 13.4142C10.2107 13.0391 10 12.5304 10 12" stroke="#6059F7" stroke-width="1.5" stroke-linecap="round"/>
<path d="M22 12C22 16.714 22 19.071 20.535 20.535C19.072 22 16.714 22 12 22C7.286 22 4.929 22 3.464 20.535C2 19.072 2 16.714 2 12C2 7.286 2 4.929 3.464 3.464C4.93 2 7.286 2 12 2C16.714 2 19.071 2 20.535 3.464C21.509 4.438 21.835 5.807 21.945 8" stroke="#6059F7" stroke-width="1.5" stroke-linecap="round"/>
</svg>
