<svg width="21" height="21" viewBox="0 0 21 21" fill="none" xmlns="http://www.w3.org/2000/svg">
<path fill-rule="evenodd" clip-rule="evenodd" d="M9.72917 6.6699C8.62167 6.01657 7.375 6.90573 7.375 8.09073V12.7357C7.375 13.9207 8.62167 14.8099 9.72917 14.1566L13.6625 11.8341C14.7233 11.2074 14.7233 9.61907 13.6625 8.9924L9.72917 6.6699ZM8.625 8.09073C8.625 7.92573 8.705 7.8099 8.8 7.75073C8.84313 7.72144 8.89391 7.70543 8.94604 7.70469C8.99818 7.70395 9.04939 7.71851 9.09333 7.74657L13.0267 10.0691C13.0843 10.1056 13.1314 10.1566 13.1633 10.217C13.1951 10.2774 13.2107 10.345 13.2083 10.4132C13.2107 10.4815 13.1951 10.5491 13.1633 10.6095C13.1314 10.6698 13.0843 10.7208 13.0267 10.7574L9.09333 13.0799C9.0493 13.1081 8.99793 13.1228 8.94562 13.1221C8.89332 13.1213 8.84239 13.1052 8.79917 13.0757C8.74353 13.0386 8.69831 12.9879 8.66782 12.9284C8.63733 12.8689 8.62259 12.8026 8.625 12.7357V8.09073Z" fill="#8F9098"/>
<path fill-rule="evenodd" clip-rule="evenodd" d="M10.5001 1.4549C5.55258 1.4549 1.54175 5.46573 1.54175 10.4132C1.54175 15.3607 5.55258 19.3716 10.5001 19.3716C15.4476 19.3716 19.4584 15.3607 19.4584 10.4132C19.4584 5.46573 15.4476 1.4549 10.5001 1.4549ZM2.79175 10.4132C2.79175 8.36885 3.60387 6.40821 5.04947 4.96261C6.49506 3.51702 8.4557 2.7049 10.5001 2.7049C12.5445 2.7049 14.5051 3.51702 15.9507 4.96261C17.3963 6.40821 18.2084 8.36885 18.2084 10.4132C18.2084 12.4576 17.3963 14.4182 15.9507 15.8638C14.5051 17.3094 12.5445 18.1216 10.5001 18.1216C8.4557 18.1216 6.49506 17.3094 5.04947 15.8638C3.60387 14.4182 2.79175 12.4576 2.79175 10.4132Z" fill="#8F9098"/>
</svg>
