<svg width="19" height="18" viewBox="0 0 19 18" fill="none" xmlns="http://www.w3.org/2000/svg">
<path fill-rule="evenodd" clip-rule="evenodd" d="M8.72917 5.25669C7.62167 4.60336 6.375 5.49253 6.375 6.67753V11.3225C6.375 12.5075 7.62167 13.3967 8.72917 12.7434L12.6625 10.4209C13.7233 9.79419 13.7233 8.20586 12.6625 7.57919L8.72917 5.25669ZM7.625 6.67753C7.625 6.51253 7.705 6.39669 7.8 6.33753C7.84313 6.30823 7.89391 6.29222 7.94604 6.29148C7.99818 6.29074 8.04939 6.3053 8.09333 6.33336L12.0267 8.65586C12.0843 8.69242 12.1314 8.74341 12.1633 8.80378C12.1951 8.86415 12.2107 8.9318 12.2083 9.00003C12.2107 9.06825 12.1951 9.1359 12.1633 9.19627C12.1314 9.25664 12.0843 9.30763 12.0267 9.34419L8.09333 11.6667C8.0493 11.6949 7.99793 11.7096 7.94562 11.7088C7.89332 11.7081 7.84239 11.692 7.79917 11.6625C7.74353 11.6254 7.69831 11.5747 7.66782 11.5152C7.63733 11.4557 7.62259 11.3894 7.625 11.3225V6.67753Z" fill="#8F9098"/>
<path fill-rule="evenodd" clip-rule="evenodd" d="M9.49996 0.041687C4.55246 0.041687 0.541626 4.05252 0.541626 9.00002C0.541626 13.9475 4.55246 17.9584 9.49996 17.9584C14.4475 17.9584 18.4583 13.9475 18.4583 9.00002C18.4583 4.05252 14.4475 0.041687 9.49996 0.041687ZM1.79163 9.00002C1.79163 6.95564 2.60375 4.995 4.04934 3.54941C5.49494 2.10381 7.45558 1.29169 9.49996 1.29169C11.5443 1.29169 13.505 2.10381 14.9506 3.54941C16.3962 4.995 17.2083 6.95564 17.2083 9.00002C17.2083 11.0444 16.3962 13.005 14.9506 14.4506C13.505 15.8962 11.5443 16.7084 9.49996 16.7084C7.45558 16.7084 5.49494 15.8962 4.04934 14.4506C2.60375 13.005 1.79163 11.0444 1.79163 9.00002Z" fill="#8F9098"/>
</svg>
