<svg width="10" height="10" viewBox="0 0 10 10" fill="none" xmlns="http://www.w3.org/2000/svg">
<path d="M5.67535 9.16137C7.49695 9.03441 8.94762 7.48524 9.06691 5.54053C9.08999 5.16012 9.08999 4.76595 9.06691 4.38553C8.94762 2.44128 7.49695 0.893033 5.67535 0.765158C5.04619 0.72151 4.41498 0.72151 3.78582 0.765158C1.96421 0.892575 0.513543 2.44128 0.39425 4.38599C0.371187 4.77061 0.371187 5.15637 0.39425 5.54099C0.437788 6.24912 0.735149 6.90499 1.08563 7.45866C1.28895 7.84595 1.15485 8.32949 0.942822 8.75253C0.790441 9.05732 0.713815 9.20949 0.775203 9.31949C0.836156 9.42949 0.973299 9.43316 1.24715 9.44003C1.78919 9.45378 2.15447 9.29245 2.44443 9.06741C2.60857 8.93953 2.69085 8.87582 2.74745 8.86849C2.80405 8.86116 2.91594 8.90974 3.13885 9.00599C3.33912 9.09308 3.57205 9.1467 3.78538 9.16183C4.40579 9.20491 5.05407 9.20491 5.67578 9.16183" stroke="#2F3036" stroke-width="0.6875" stroke-linecap="round" stroke-linejoin="round"/>
<path d="M4.07764 3.95833C4.07764 3.56875 4.37021 3.25342 4.7307 3.25342C5.09119 3.25342 5.38376 3.56921 5.38376 3.95833C5.38376 4.09904 5.34588 4.22967 5.28014 4.33967C5.08509 4.66692 4.7307 4.9795 4.7307 5.36863V5.54508M4.7307 6.46175H4.73462" stroke="#2F3036" stroke-width="0.6875" stroke-linecap="round" stroke-linejoin="round"/>
</svg>
