<svg width="21" height="20" viewBox="0 0 21 20" fill="none" xmlns="http://www.w3.org/2000/svg">
<path fill-rule="evenodd" clip-rule="evenodd" d="M10.0834 2.29169C9.12586 2.29169 8.17768 2.48029 7.29302 2.84673C6.40835 3.21317 5.60452 3.75027 4.92743 4.42737C4.25033 5.10446 3.71323 5.90829 3.34679 6.79295C2.98035 7.67762 2.79175 8.6258 2.79175 9.58335C2.79175 10.5409 2.98035 11.4891 3.34679 12.3738C3.71323 13.2584 4.25033 14.0622 4.92743 14.7393C5.60452 15.4164 6.40835 15.9535 7.29302 16.32C8.17768 16.6864 9.12586 16.875 10.0834 16.875C12.0173 16.875 13.8719 16.1068 15.2394 14.7393C16.6069 13.3719 17.3751 11.5172 17.3751 9.58335C17.3751 7.64948 16.6069 5.79482 15.2394 4.42737C13.8719 3.05991 12.0173 2.29169 10.0834 2.29169ZM1.54175 9.58335C1.54175 4.86669 5.36675 1.04169 10.0834 1.04169C14.8001 1.04169 18.6251 4.86669 18.6251 9.58335C18.6251 11.7167 17.8426 13.6684 16.5492 15.165L19.2751 17.8917C19.3365 17.9489 19.3857 18.0179 19.4199 18.0946C19.4541 18.1712 19.4724 18.254 19.4739 18.3379C19.4754 18.4218 19.46 18.5052 19.4285 18.583C19.3971 18.6608 19.3503 18.7315 19.2909 18.7909C19.2316 18.8502 19.1609 18.897 19.0831 18.9285C19.0053 18.9599 18.9219 18.9753 18.838 18.9738C18.7541 18.9724 18.6713 18.954 18.5946 18.9198C18.518 18.8857 18.449 18.8364 18.3917 18.775L15.6651 16.0492C14.1157 17.3916 12.1334 18.1288 10.0834 18.125C5.36675 18.125 1.54175 14.3 1.54175 9.58335Z" fill="#6059F7"/>
<path d="M10 20 ..." fill="currentColor" />

</svg>
