<svg width="19" height="18" viewBox="0 0 19 18" fill="none" xmlns="http://www.w3.org/2000/svg">
<path fill-rule="evenodd" clip-rule="evenodd" d="M9.08329 1.29169C8.12574 1.29169 7.17756 1.48029 6.29289 1.84673C5.40823 2.21317 4.6044 2.75027 3.92731 3.42737C3.25021 4.10446 2.71311 4.90829 2.34667 5.79295C1.98023 6.67762 1.79163 7.6258 1.79163 8.58335C1.79163 9.54091 1.98023 10.4891 2.34667 11.3738C2.71311 12.2584 3.25021 13.0622 3.92731 13.7393C4.6044 14.4164 5.40823 14.9535 6.29289 15.32C7.17756 15.6864 8.12574 15.875 9.08329 15.875C11.0172 15.875 12.8718 15.1068 14.2393 13.7393C15.6067 12.3719 16.375 10.5172 16.375 8.58335C16.375 6.64948 15.6067 4.79482 14.2393 3.42737C12.8718 2.05991 11.0172 1.29169 9.08329 1.29169ZM0.541626 8.58335C0.541626 3.86669 4.36663 0.041687 9.08329 0.041687C13.8 0.041687 17.625 3.86669 17.625 8.58335C17.625 10.7167 16.8425 12.6684 15.5491 14.165L18.275 16.8917C18.3364 16.9489 18.3856 17.0179 18.4198 17.0946C18.4539 17.1712 18.4723 17.254 18.4738 17.3379C18.4753 17.4218 18.4598 17.5052 18.4284 17.583C18.397 17.6608 18.3502 17.7315 18.2908 17.7909C18.2315 17.8502 18.1608 17.897 18.083 17.9285C18.0051 17.9599 17.9218 17.9753 17.8379 17.9738C17.7539 17.9724 17.6712 17.954 17.5945 17.9198C17.5178 17.8857 17.4488 17.8364 17.3916 17.775L14.665 15.0492C13.1156 16.3916 11.1333 17.1288 9.08329 17.125C4.36663 17.125 0.541626 13.3 0.541626 8.58335Z" fill="#8F9098"/>
</svg>
