<svg width="18" height="16" viewBox="0 0 18 16" fill="none" xmlns="http://www.w3.org/2000/svg">
<path d="M6.27417 6.95832L11.6908 4.45832M6.27417 9.04166L11.6908 11.5417M16.5 3.41666C16.5 4.0797 16.2366 4.71558 15.7678 5.18442C15.2989 5.65326 14.663 5.91666 14 5.91666C13.337 5.91666 12.7011 5.65326 12.2322 5.18442C11.7634 4.71558 11.5 4.0797 11.5 3.41666C11.5 2.75362 11.7634 2.11773 12.2322 1.64889C12.7011 1.18005 13.337 0.916656 14 0.916656C14.663 0.916656 15.2989 1.18005 15.7678 1.64889C16.2366 2.11773 16.5 2.75362 16.5 3.41666ZM6.5 7.99999C6.5 8.66303 6.23661 9.29892 5.76777 9.76776C5.29893 10.2366 4.66304 10.5 4 10.5C3.33696 10.5 2.70107 10.2366 2.23223 9.76776C1.76339 9.29892 1.5 8.66303 1.5 7.99999C1.5 7.33695 1.76339 6.70106 2.23223 6.23222C2.70107 5.76338 3.33696 5.49999 4 5.49999C4.66304 5.49999 5.29893 5.76338 5.76777 6.23222C6.23661 6.70106 6.5 7.33695 6.5 7.99999ZM16.5 12.5833C16.5 13.2464 16.2366 13.8823 15.7678 14.3511C15.2989 14.8199 14.663 15.0833 14 15.0833C13.337 15.0833 12.7011 14.8199 12.2322 14.3511C11.7634 13.8823 11.5 13.2464 11.5 12.5833C11.5 11.9203 11.7634 11.2844 12.2322 10.8156C12.7011 10.3467 13.337 10.0833 14 10.0833C14.663 10.0833 15.2989 10.3467 15.7678 10.8156C16.2366 11.2844 16.5 11.9203 16.5 12.5833Z" stroke="#2F3036" stroke-width="1.5" stroke-linecap="round" stroke-linejoin="round"/>
</svg>
