<svg width="24" height="24" viewBox="0 0 24 24" fill="none" xmlns="http://www.w3.org/2000/svg">
<path fill-rule="evenodd" clip-rule="evenodd" d="M11.945 1.25H12.055C13.422 1.25 14.525 1.25 15.392 1.367C16.292 1.487 17.05 1.747 17.652 2.348C18.052 2.748 18.3 3.217 18.457 3.75C18.942 3.752 19.354 3.758 19.703 3.787C20.166 3.824 20.585 3.905 20.976 4.104C21.5874 4.41556 22.0844 4.91263 22.396 5.524C22.595 5.915 22.676 6.334 22.713 6.797C22.75 7.245 22.75 7.795 22.75 8.469V15.531C22.75 16.205 22.75 16.756 22.713 17.203C22.676 17.666 22.595 18.085 22.396 18.476C22.0844 19.0874 21.5874 19.5844 20.976 19.896C20.585 20.095 20.166 20.176 19.703 20.213C19.353 20.242 18.942 20.248 18.457 20.25C18.3 20.783 18.052 21.252 17.652 21.652C17.05 22.254 16.292 22.512 15.392 22.634C14.525 22.75 13.422 22.75 12.055 22.75H11.945C10.578 22.75 9.475 22.75 8.608 22.634C7.708 22.512 6.95 22.254 6.348 21.652C5.948 21.252 5.7 20.783 5.543 20.25C5.12735 20.2529 4.71174 20.2406 4.297 20.213C3.834 20.176 3.415 20.095 3.025 19.896C2.41363 19.5844 1.91656 19.0874 1.605 18.476C1.405 18.085 1.325 17.666 1.287 17.203C1.25 16.756 1.25 16.205 1.25 15.531V8.47C1.25 7.796 1.25 7.246 1.287 6.798C1.324 6.335 1.405 5.916 1.604 5.526C1.91556 4.91463 2.41263 4.41756 3.024 4.106C3.415 3.906 3.834 3.826 4.297 3.788C4.647 3.759 5.058 3.753 5.543 3.751C5.7 3.218 5.948 2.749 6.348 2.349C6.95 1.747 7.708 1.489 8.608 1.368C9.475 1.251 10.578 1.251 11.945 1.251M5.303 5.252C4.945 5.254 4.66 5.262 4.419 5.282C4.049 5.312 3.849 5.367 3.706 5.441C3.3766 5.6088 3.1088 5.8766 2.941 6.206C2.867 6.35 2.811 6.549 2.781 6.919C2.751 7.299 2.75 7.788 2.75 8.5V15.5C2.75 16.212 2.75 16.702 2.782 17.08C2.812 17.451 2.867 17.65 2.941 17.795C3.109 18.124 3.376 18.391 3.706 18.559C3.85 18.633 4.049 18.689 4.419 18.719C4.659 18.739 4.945 18.745 5.303 18.749C5.25 17.998 5.25 17.104 5.25 16.055V7.945C5.25 6.895 5.25 6.002 5.303 5.252ZM18.75 7.945C18.75 6.895 18.75 6.002 18.697 5.252C19.055 5.254 19.34 5.262 19.581 5.282C19.951 5.312 20.151 5.367 20.294 5.441C20.624 5.609 20.892 5.876 21.059 6.206C21.133 6.35 21.189 6.549 21.219 6.919C21.249 7.299 21.25 7.788 21.25 8.5V15.5C21.25 16.212 21.25 16.702 21.218 17.08C21.188 17.451 21.133 17.65 21.059 17.795C20.891 18.124 20.6232 18.3915 20.294 18.559C20.15 18.633 19.951 18.689 19.581 18.719C19.341 18.739 19.055 18.745 18.697 18.749C18.75 17.998 18.75 17.104 18.75 16.055V7.945ZM8.808 2.853C8.074 2.952 7.686 3.133 7.409 3.409C7.132 3.686 6.952 4.074 6.853 4.809C6.752 5.562 6.75 6.564 6.75 8V16C6.75 17.435 6.752 18.436 6.853 19.192C6.952 19.926 7.133 20.314 7.409 20.591C7.686 20.868 8.074 21.048 8.809 21.147C9.563 21.248 10.565 21.25 12 21.25C13.435 21.25 14.437 21.248 15.192 21.147C15.926 21.048 16.314 20.867 16.591 20.591C16.868 20.314 17.048 19.926 17.147 19.191C17.248 18.436 17.25 17.435 17.25 16V8C17.25 6.565 17.248 5.563 17.147 4.808C17.048 4.074 16.867 3.686 16.591 3.409C16.314 3.132 15.926 2.952 15.191 2.853C14.436 2.752 13.435 2.75 12 2.75C10.565 2.75 9.563 2.752 8.808 2.853Z" fill="#6059F7"/>
</svg>
