<svg width="21" height="20" viewBox="0 0 21 20" fill="none" xmlns="http://www.w3.org/2000/svg">
<path d="M10.5 10C11.8807 10 13 8.88071 13 7.5C13 6.11929 11.8807 5 10.5 5C9.11929 5 8 6.11929 8 7.5C8 8.88071 9.11929 10 10.5 10Z" stroke="#8F9098" stroke-width="1.25"/>
<path d="M10.5001 18.3334C15.1025 18.3334 18.8334 14.6024 18.8334 10C18.8334 5.39765 15.1025 1.66669 10.5001 1.66669C5.89771 1.66669 2.16675 5.39765 2.16675 10C2.16675 14.6024 5.89771 18.3334 10.5001 18.3334Z" stroke="#8F9098" stroke-width="1.25"/>
<path d="M15.4751 16.6667C15.3418 14.2567 14.6043 12.5 10.5001 12.5C6.39598 12.5 5.65848 14.2567 5.52515 16.6667" stroke="#8F9098" stroke-width="1.25" stroke-linecap="round"/>
</svg>
