<svg width="19" height="18" viewBox="0 0 19 18" fill="none" xmlns="http://www.w3.org/2000/svg">
<path d="M9.5 9C10.8807 9 12 7.88071 12 6.5C12 5.11929 10.8807 4 9.5 4C8.11929 4 7 5.11929 7 6.5C7 7.88071 8.11929 9 9.5 9Z" stroke="#8F9098" stroke-width="1.25"/>
<path d="M9.49996 17.3334C14.1023 17.3334 17.8333 13.6024 17.8333 9.00002C17.8333 4.39765 14.1023 0.666687 9.49996 0.666687C4.89759 0.666687 1.16663 4.39765 1.16663 9.00002C1.16663 13.6024 4.89759 17.3334 9.49996 17.3334Z" stroke="#8F9098" stroke-width="1.25"/>
<path d="M14.4749 15.6667C14.3416 13.2567 13.6041 11.5 9.4999 11.5C5.39574 11.5 4.65824 13.2567 4.5249 15.6667" stroke="#8F9098" stroke-width="1.25" stroke-linecap="round"/>
</svg>
